HIERARCHY
ROOT Hips
{
	OFFSET -3.958830 18.904000 13.208200
	CHANNELS 6 Xposition Yposition Zposition Zrotation Yrotation Xrotation 
	JOINT LHipJoint
	{
		OFFSET 0.000000 0.000000 0.000000
		CHANNELS 3 Zrotation Yrotation Xrotation
		JOINT LeftUpLeg
		{
			OFFSET 1.800000 -1.400000 0.085000
			CHANNELS 3 Zrotation Yrotation Xrotation
			JOINT LeftLeg
			{
				OFFSET 2.215000 -6.000000 0.000000
				CHANNELS 3 Zrotation Yrotation Xrotation
				JOINT LeftFoot
				{
					OFFSET 2.500000 -6.900000 0.000000
					CHANNELS 3 Zrotation Yrotation Xrotation
					JOINT LeftToeBase
					{
						OFFSET 0.200000 -0.500000 1.950000
						CHANNELS 3 Zrotation Yrotation Xrotation
						End Site
						{
							OFFSET 0.000000 0.000000 0.000000
						}
					}
				}
			}
		}
	}
	JOINT RHipJoint
	{
		OFFSET 0.000000 0.000000 0.000000
		CHANNELS 3 Zrotation Yrotation Xrotation
		JOINT RightUpLeg
		{
			OFFSET -1.800000 -1.400000 0.085000
			CHANNELS 3 Zrotation Yrotation Xrotation
			JOINT RightLeg
			{
				OFFSET -2.215000 -6.000000 0.000000
				CHANNELS 3 Zrotation Yrotation Xrotation
				JOINT RightFoot
				{
					OFFSET -2.500000 -6.900000 0.000000
					CHANNELS 3 Zrotation Yrotation Xrotation
					JOINT RightToeBase
					{
						OFFSET -0.200000 -0.500000 1.950000
						CHANNELS 3 Zrotation Yrotation Xrotation
						End Site
						{
							OFFSET 0.000000 0.000000 0.000000
						}
					}
				}
			}
		}
	}
	JOINT LowerBack
	{
		OFFSET 0.000000 0.000000 0.000000
		CHANNELS 3 Zrotation Yrotation Xrotation
		JOINT Spine
		{
			OFFSET -0.087000 1.940000 -0.288900
			CHANNELS 3 Zrotation Yrotation Xrotation
			JOINT Spine1
			{
				OFFSET 0.000000 1.950000 0.060000
				CHANNELS 3 Zrotation Yrotation Xrotation
				JOINT Neck
				{
					OFFSET 0.000000 0.000000 0.000000
					CHANNELS 3 Zrotation Yrotation Xrotation
					JOINT Neck1
					{
						OFFSET 0.000000 1.600000 0.340000
						CHANNELS 3 Zrotation Yrotation Xrotation
						JOINT Head
						{
							OFFSET 0.000000 1.667000 -0.240000
							CHANNELS 3 Zrotation Yrotation Xrotation
							End Site
							{
								OFFSET 0.000000 0.000000 0.000000
							}
						}
					}
				}
				JOINT LeftShoulder
				{
					OFFSET 0.000000 0.000000 0.000000
					CHANNELS 3 Zrotation Yrotation Xrotation
					JOINT LeftArm
					{
						OFFSET 2.700000 1.550000 -0.730000
						CHANNELS 3 Zrotation Yrotation Xrotation
						JOINT LeftForeArm
						{
							OFFSET 5.450000 0.000000 0.000000
							CHANNELS 3 Zrotation Yrotation Xrotation
							JOINT LeftHand
							{
								OFFSET 3.450000 0.000000 0.000000
								CHANNELS 3 Zrotation Yrotation Xrotation
								JOINT LeftHandIndex1
								{
									OFFSET 0.750000 0.000000 0.000000
									CHANNELS 3 Zrotation Yrotation Xrotation
									End Site
									{
										OFFSET 0.000000 0.000000 0.000000
									}
								}
							}
						}
					}
				}
				JOINT RightShoulder
				{
					OFFSET 0.000000 0.000000 0.000000
					CHANNELS 3 Zrotation Yrotation Xrotation
					JOINT RightArm
					{
						OFFSET -2.700000 1.550000 -0.730000
						CHANNELS 3 Zrotation Yrotation Xrotation
						JOINT RightForeArm
						{
							OFFSET -5.450000 0.000000 0.000000
							CHANNELS 3 Zrotation Yrotation Xrotation
							JOINT RightHand
							{
								OFFSET -3.450000 0.000000 0.000000
								CHANNELS 3 Zrotation Yrotation Xrotation
								JOINT RightHandIndex1
								{
									OFFSET -0.750000 0.000000 0.000000
									CHANNELS 3 Zrotation Yrotation Xrotation
									End Site
									{
										OFFSET 0.000000 0.000000 0.000000
									}
								}
							}
						}
					}
				}
			}
		}
	}
}
MOTION
Frames: 10
Frame Time: 0.016667
-0.256390 17.018330 -2.852800 -7.998594 -17.544806 -5.114792 -15.190360 13.831408 3.393145 7.361731 -0.019658 -27.894732 -2.844546 10.500126 41.591567 0.331494 6.965620 1.726356 1.110740 0.919140 1.146710 18.069653 -10.549694 3.522231 7.462883 2.831328 -9.101499 5.074667 -4.383234 15.655592 -0.883886 -2.588237 3.198939 0.253330 -0.800950 0.378710 -2.925970 -2.549917 -8.463653 12.314154 0.317136 46.325669 -1.129240 6.553383 20.300709 7.905527 -5.990162 -20.460465 -12.427582 4.713568 56.115745 -6.647330 1.996910 -43.730370 -22.897521 -29.983978 12.342579 -54.379250 -4.297147 -25.431977 18.696124 -70.769749 -25.240221 -2.431685 3.139192 0.932470 -0.691730 0.936370 0.089780 8.805186 45.481479 14.413582 31.064783 52.077028 -15.779754 27.474219 65.537079 10.019784 1.110581 -2.289738 0.362670 -0.049620 -0.544410 -0.234380 
-0.260310 16.996560 -2.859620 -8.621328 -18.569700 -4.986505 -15.231713 13.830415 3.444959 8.195816 0.352279 -29.034355 -2.667090 10.948559 42.920580 0.379041 7.275427 1.608194 1.128200 0.940740 1.148510 18.050841 -10.418164 3.535347 8.111723 3.044412 -9.018067 5.226630 -4.405557 16.231949 -0.897339 -2.627279 3.178207 0.266450 -0.804620 0.382320 -2.833237 -2.746876 -8.531180 12.318805 0.298656 46.770747 -0.684499 6.570122 20.531075 8.205250 -6.802254 -20.549286 -14.233960 5.621978 55.641351 -6.752140 1.759560 -43.754200 -23.096268 -30.254175 12.335999 -54.953245 -4.624827 -24.576540 17.718430 -65.528393 -21.982295 -2.405478 3.198409 0.923050 -0.696370 0.938460 0.097800 8.589168 46.657518 14.205172 29.882465 52.191169 -15.774432 29.610718 68.674470 11.289982 1.046326 -2.447478 0.374240 -0.051470 -0.551630 -0.224160 
-0.264570 16.975460 -2.866470 -9.207776 -19.497968 -4.881315 -15.271983 13.821868 3.495231 9.002938 0.738731 -30.066268 -2.486057 11.381120 44.150526 0.424778 7.568880 1.497643 1.144960 0.961550 1.148800 18.034574 -10.291756 3.546656 8.737703 3.260089 -8.950168 5.340063 -4.427108 16.850628 -0.912091 -2.670763 3.156236 0.278780 -0.806870 0.386400 -2.748055 -2.924087 -8.594201 12.325991 0.281125 47.206656 -0.216784 6.580362 20.740943 8.442866 -7.576572 -20.595395 -15.991806 6.462719 55.152058 -6.780520 1.513060 -43.765560 -23.174856 -30.575359 12.395945 -55.516618 -5.002581 -23.504852 17.248588 -60.654298 -19.485650 -2.390283 3.246492 0.914380 -0.700490 0.940250 0.106080 8.369837 47.827218 13.866244 29.027455 52.129261 -15.343954 31.058443 71.720243 12.155107 1.057822 -2.542664 0.385690 -0.052730 -0.557730 -0.213800 
-0.268600 16.954860 -2.873090 -9.744416 -20.322970 -4.793199 -15.310032 13.803436 3.543197 9.757029 1.126207 -31.004220 -2.299065 11.795647 45.296717 0.466764 7.848694 1.394839 1.159200 0.978100 1.149280 18.022014 -10.174129 3.554996 9.328282 3.476170 -8.911495 5.391253 -4.442731 17.507875 -0.925873 -2.716505 3.134433 0.290120 -0.805740 0.389640 -2.674231 -3.071796 -8.649490 12.338425 0.267192 47.597351 0.233335 6.590139 20.919990 8.625513 -8.281714 -20.564546 -17.589628 7.199187 54.615563 -6.761680 1.270610 -43.745660 -23.157427 -30.912850 12.509648 -56.044732 -5.373144 -22.304386 16.746961 -56.237494 -17.371360 -2.384708 3.284491 0.907010 -0.702870 0.940480 0.113960 8.141777 48.943459 13.390196 28.397050 51.922712 -14.528297 31.513839 74.647357 12.467573 1.160103 -2.543342 0.393510 -0.050720 -0.562280 -0.204540 
-0.273020 16.934960 -2.879040 -10.231391 -21.035605 -4.720294 -15.349535 13.783899 3.585656 10.459741 1.521713 -31.845535 -2.104175 12.185513 46.332105 0.502689 8.106323 1.299799 1.169380 0.990260 1.148720 18.009856 -10.058034 3.560244 9.884635 3.685365 -8.874767 5.411673 -4.453371 18.158154 -0.937391 -2.763293 3.113143 0.300710 -0.804460 0.389960 -2.602086 -3.214366 -8.696197 12.312378 0.280844 47.925166 0.706091 6.608926 21.058362 8.744685 -8.856885 -20.476566 -18.919144 7.807790 54.136294 -6.758810 1.050230 -43.647640 -23.157498 -31.281185 12.644992 -56.476994 -5.705228 -20.969730 15.905045 -51.962649 -15.314870 -2.386343 3.314859 0.900330 -0.704160 0.938480 0.118880 8.018531 49.983814 12.877655 27.945394 51.591838 -13.401360 30.742311 77.385857 12.146830 1.337958 -2.444136 0.397670 -0.047390 -0.564040 -0.197960 
-0.277340 16.916360 -2.884350 -10.687890 -21.634680 -4.653794 -15.387842 13.759331 3.624387 11.120644 1.911242 -32.603708 -1.914861 12.550095 47.275779 0.538142 8.343377 1.213567 1.179300 1.000680 1.150610 17.999980 -9.946848 3.564166 10.410918 3.879156 -8.826244 5.421644 -4.460934 18.753453 -0.949139 -2.810081 3.091867 0.309150 -0.803880 0.391730 -2.538419 -3.340493 -8.735544 12.322841 0.290119 48.198637 1.140382 6.634565 21.175943 8.834891 -9.311364 -20.360532 -19.992313 8.286084 53.709177 -6.788060 0.847750 -43.478510 -23.210250 -31.697756 12.813999 -56.814987 -5.992140 -19.641675 15.014432 -48.085169 -13.541051 -2.391553 3.338418 0.893550 -0.704590 0.936730 0.122600 7.971813 50.974784 12.378776 27.594286 51.141227 -12.191440 28.401628 79.974441 10.933663 1.560296 -2.259943 0.402810 -0.046620 -0.566720 -0.192330 
-0.281840 16.900040 -2.889180 -11.094357 -22.144172 -4.597158 -15.425206 13.733641 3.658196 11.725466 2.292281 -33.271846 -1.743438 12.892022 48.109073 0.569964 8.559353 1.136275 1.185200 1.006020 1.152410 17.991310 -9.841191 3.565738 10.885431 4.060472 -8.775686 5.428173 -4.466678 19.299011 -0.959346 -2.855035 3.071979 0.315050 -0.801700 0.392600 -2.480519 -3.455370 -8.766923 12.338800 0.321648 48.422024 1.551991 6.684324 21.278743 8.890792 -9.650530 -20.211560 -20.806977 8.636699 53.333223 -6.883060 0.664390 -43.261820 -23.345366 -32.125802 12.979632 -57.013299 -6.243511 -18.333747 13.994842 -44.557549 -11.961969 -2.402142 3.352584 0.887070 -0.703630 0.933790 0.124620 8.037658 51.889298 11.917345 27.318187 50.615519 -11.041905 24.315081 82.259978 8.691856 1.783386 -2.014661 0.405490 -0.044070 -0.567020 -0.188230 
-0.286760 16.885530 -2.893370 -11.456648 -22.567376 -4.527763 -15.460226 13.703931 3.689336 12.266603 2.653790 -33.883274 -1.581097 13.202476 48.849095 0.596152 8.755733 1.066005 1.189410 1.008110 1.154090 17.984462 -9.744337 3.566371 11.320357 4.219536 -8.729854 5.421815 -4.467328 19.755548 -0.967554 -2.896134 3.054110 0.320370 -0.799020 0.395800 -2.430805 -3.549838 -8.794108 12.375353 0.370899 48.570572 1.922722 6.753182 21.372852 8.930227 -9.873347 -20.038456 -21.329106 8.848845 53.010248 -7.066090 0.506180 -43.005410 -23.535022 -32.548824 13.136602 -57.098470 -6.462012 -17.079298 12.883403 -41.375670 -10.572467 -2.417532 3.360592 0.882140 -0.700150 0.931010 0.126360 8.160763 52.702218 11.502018 27.129805 50.077419 -10.091111 18.204513 84.188684 5.094977 1.974244 -1.727608 0.406350 -0.042890 -0.566460 -0.186020 
-0.291560 16.873710 -2.897050 -11.761634 -22.918095 -4.475363 -15.493054 13.679045 3.714852 12.723307 2.991174 -34.413606 -1.418290 13.468837 49.485852 0.617394 8.923131 1.004442 1.192110 1.009780 1.154790 17.977602 -9.656502 3.565427 11.683227 4.352831 -8.664675 5.442511 -4.471978 20.126847 -0.974437 -2.934736 3.037822 0.325220 -0.798260 0.398890 -2.384574 -3.638450 -8.816454 12.404985 0.441182 48.697387 2.264071 6.838101 21.444152 8.951517 -9.996238 -19.873158 -21.631404 8.972484 52.796756 -7.285010 0.380460 -42.761690 -23.749095 -32.957185 13.276740 -57.089369 -6.653982 -15.909487 11.630700 -38.537118 -9.338748 -2.434371 3.364309 0.878020 -0.696320 0.928800 0.126390 8.319899 53.394713 11.156483 26.996169 49.560074 -9.463372 10.444115 85.688861 0.213491 2.110855 -1.423652 0.407090 -0.043570 -0.565150 -0.185160 
-0.296640 16.864040 -2.900420 -12.008154 -23.212464 -4.427798 -15.524485 13.659268 3.737534 13.105563 3.302675 -34.887547 -1.266844 13.701323 50.030056 0.635450 9.066097 0.952112 1.191800 1.009420 1.155340 17.969835 -9.576434 3.562874 11.994956 4.452457 -8.590886 5.447264 -4.468769 20.393217 -0.979106 -2.963236 3.025564 0.327690 -0.797470 0.400110 -2.338491 -3.724790 -8.837568 12.398211 0.549132 48.814052 2.593291 6.952733 21.474142 8.953352 -10.028781 -19.722742 -21.727494 9.002993 52.677686 -7.544880 0.288930 -42.547480 -23.954652 -33.307880 13.374469 -56.991808 -6.830698 -14.827153 10.181662 -36.016155 -8.224262 -2.453055 3.362462 0.874460 -0.692480 0.926230 0.124110 8.490621 53.922530 10.898033 26.931537 49.134599 -9.126088 1.582566 86.800250 -5.683713 2.196231 -1.106921 0.406810 -0.043320 -0.562480 -0.185290 
